<svg xmlns="http://www.w3.org/2000/svg" width="650" height="149" viewBox="0 0 650 149"><style>@media(prefers-color-scheme:dark){:root{filter:invert(1)}}</style><g transform="translate(0.5,0.5)" text-anchor="middle" font-size="14" font-family="sans-serif" font-weight="normal"><g transform="translate(4,114)"><g stroke="black" stroke-width="1" stroke-linecap="round"><line x2="641"/><line x1="641" x2="641" y2="31"/><line x2="641" y1="31" y2="31"/><line y2="31"/><line x1="40" x2="40" y2="3"/><line x1="40" x2="40" y1="31" y2="28"/><line x1="80" x2="80" y2="3"/><line x1="80" x2="80" y1="31" y2="28"/><line x1="120" x2="120" y2="3"/><line x1="120" x2="120" y1="31" y2="28"/><line x1="160" x2="160" y2="3"/><line x1="160" x2="160" y1="31" y2="28"/><line x1="200" x2="200" y2="3"/><line x1="200" x2="200" y1="31" y2="28"/><line x1="240" x2="240" y2="3"/><line x1="240" x2="240" y1="31" y2="28"/><line x1="280" x2="280" y2="3"/><line x1="280" x2="280" y1="31" y2="28"/><line x1="321" x2="321" y2="3"/><line x1="321" x2="321" y1="31" y2="28"/><line x1="361" x2="361" y2="3"/><line x1="361" x2="361" y1="31" y2="28"/><line x1="401" x2="401" y2="3"/><line x1="401" x2="401" y1="31" y2="28"/><line x1="441" x2="441" y2="3"/><line x1="441" x2="441" y1="31" y2="28"/><line x1="481" x2="481" y2="3"/><line x1="481" x2="481" y1="31" y2="28"/><line x1="521" x2="521" y2="3"/><line x1="521" x2="521" y1="31" y2="28"/><line x1="561" x2="561" y2="31"/><line x1="601" x2="601" y2="31"/></g><g><g><rect width="561" height="31" field="" style="fill-opacity:0.1"/><rect x="601" width="40" height="31" field="" style="fill-opacity:0.1"/></g><g transform="translate(20,-11)"/><g transform="translate(20,15)"><g transform="translate(260)"><text y="6"><tspan></tspan></text></g><g transform="translate(561)"><text y="6"><tspan>[0]</tspan></text></g><g transform="translate(601)"><text y="6"><tspan></tspan></text></g></g><g transform="translate(20,39)"/></g></g><g transform="translate(4,83)"><g stroke="black" stroke-width="1" stroke-linecap="round"><line x2="641"/><line x1="641" x2="641" y2="31"/><line x2="641" y1="31" y2="31"/><line y2="31"/><line x1="40" x2="40" y2="3"/><line x1="40" x2="40" y1="31" y2="28"/><line x1="80" x2="80" y2="3"/><line x1="80" x2="80" y1="31" y2="28"/><line x1="120" x2="120" y2="3"/><line x1="120" x2="120" y1="31" y2="28"/><line x1="160" x2="160" y2="3"/><line x1="160" x2="160" y1="31" y2="28"/><line x1="200" x2="200" y2="3"/><line x1="200" x2="200" y1="31" y2="28"/><line x1="240" x2="240" y2="3"/><line x1="240" x2="240" y1="31" y2="28"/><line x1="280" x2="280" y2="3"/><line x1="280" x2="280" y1="31" y2="28"/><line x1="321" x2="321" y2="3"/><line x1="321" x2="321" y1="31" y2="28"/><line x1="361" x2="361" y2="3"/><line x1="361" x2="361" y1="31" y2="28"/><line x1="401" x2="401" y2="31"/><line x1="441" x2="441" y2="3"/><line x1="441" x2="441" y1="31" y2="28"/><line x1="481" x2="481" y2="3"/><line x1="481" x2="481" y1="31" y2="28"/><line x1="521" x2="521" y2="3"/><line x1="521" x2="521" y1="31" y2="28"/><line x1="561" x2="561" y2="3"/><line x1="561" x2="561" y1="31" y2="28"/><line x1="601" x2="601" y2="3"/><line x1="601" x2="601" y1="31" y2="28"/></g><g><g><rect width="401" height="31" field="" style="fill-opacity:0.1"/></g><g transform="translate(20,-11)"/><g transform="translate(20,15)"><g transform="translate(180)"><text y="6"><tspan></tspan></text></g><g transform="translate(501)"><text y="6"><tspan>.third</tspan></text></g></g><g transform="translate(20,39)"/></g></g><g transform="translate(4,52)"><g stroke="black" stroke-width="1" stroke-linecap="round"><line x2="641"/><line x1="641" x2="641" y2="31"/><line x2="641" y1="31" y2="31"/><line y2="31"/><line x1="40" x2="40" y2="3"/><line x1="40" x2="40" y1="31" y2="28"/><line x1="80" x2="80" y2="3"/><line x1="80" x2="80" y1="31" y2="28"/><line x1="120" x2="120" y2="3"/><line x1="120" x2="120" y1="31" y2="28"/><line x1="160" x2="160" y2="3"/><line x1="160" x2="160" y1="31" y2="28"/><line x1="200" x2="200" y2="3"/><line x1="200" x2="200" y1="31" y2="28"/><line x1="240" x2="240" y2="3"/><line x1="240" x2="240" y1="31" y2="28"/><line x1="280" x2="280" y2="31"/><line x1="321" x2="321" y2="3"/><line x1="321" x2="321" y1="31" y2="28"/><line x1="361" x2="361" y2="3"/><line x1="361" x2="361" y1="31" y2="28"/><line x1="401" x2="401" y2="3"/><line x1="401" x2="401" y1="31" y2="28"/><line x1="441" x2="441" y2="3"/><line x1="441" x2="441" y1="31" y2="28"/><line x1="481" x2="481" y2="3"/><line x1="481" x2="481" y1="31" y2="28"/><line x1="521" x2="521" y2="3"/><line x1="521" x2="521" y1="31" y2="28"/><line x1="561" x2="561" y2="3"/><line x1="561" x2="561" y1="31" y2="28"/><line x1="601" x2="601" y2="3"/><line x1="601" x2="601" y1="31" y2="28"/></g><g><g><rect x="280" width="361" height="31" field="" style="fill-opacity:0.1"/></g><g transform="translate(20,-11)"/><g transform="translate(20,15)"><g transform="translate(120)"><text y="6"><tspan>.second</tspan></text></g><g transform="translate(441)"><text y="6"><tspan></tspan></text></g></g><g transform="translate(20,39)"/></g></g><g transform="translate(4,21)"><g stroke="black" stroke-width="1" stroke-linecap="round"><line x2="641"/><line x1="641" x2="641" y2="31"/><line x2="641" y1="31" y2="31"/><line y2="31"/><line x1="40" x2="40" y2="31"/><line x1="80" x2="80" y2="3"/><line x1="80" x2="80" y1="31" y2="28"/><line x1="120" x2="120" y2="3"/><line x1="120" x2="120" y1="31" y2="28"/><line x1="160" x2="160" y2="31"/><line x1="200" x2="200" y2="3"/><line x1="200" x2="200" y1="31" y2="28"/><line x1="240" x2="240" y2="3"/><line x1="240" x2="240" y1="31" y2="28"/><line x1="280" x2="280" y2="3"/><line x1="280" x2="280" y1="31" y2="28"/><line x1="321" x2="321" y2="3"/><line x1="321" x2="321" y1="31" y2="28"/><line x1="361" x2="361" y2="3"/><line x1="361" x2="361" y1="31" y2="28"/><line x1="401" x2="401" y2="3"/><line x1="401" x2="401" y1="31" y2="28"/><line x1="441" x2="441" y2="3"/><line x1="441" x2="441" y1="31" y2="28"/><line x1="481" x2="481" y2="3"/><line x1="481" x2="481" y1="31" y2="28"/><line x1="521" x2="521" y2="3"/><line x1="521" x2="521" y1="31" y2="28"/><line x1="561" x2="561" y2="3"/><line x1="561" x2="561" y1="31" y2="28"/><line x1="601" x2="601" y2="3"/><line x1="601" x2="601" y1="31" y2="28"/></g><g><g><rect width="40" height="31" field="" style="fill-opacity:0.1"/><rect x="160" width="481" height="31" field="" style="fill-opacity:0.1"/></g><g transform="translate(20,-11)"/><g transform="translate(20,15)"><g transform="translate(0)"><text y="6"><tspan></tspan></text></g><g transform="translate(80)"><text y="6"><tspan>.first</tspan></text></g><g transform="translate(381)"><text y="6"><tspan></tspan></text></g></g><g transform="translate(20,39)"/></g></g><g transform="translate(4,-3)"><g transform="translate(20,11)"><text y="6">0</text></g><g transform="translate(60,11)"><text y="6">1</text></g><g transform="translate(140,11)"><text y="6">3</text></g><g transform="translate(180,11)"><text y="6">4</text></g><g transform="translate(260,11)"><text y="6">6</text></g><g transform="translate(300,11)"><text y="6">7</text></g><g transform="translate(381,11)"><text y="6">9</text></g><g transform="translate(421,11)"><text y="6">10</text></g><g transform="translate(541,11)"><text y="6">13</text></g><g transform="translate(581,11)"><text y="6">14</text></g><g transform="translate(621,11)"><text y="6">15</text></g></g></g></svg>